<svg xmlns="http://www.w3.org/2000/svg" data-name="Layer 1" viewBox="0 0 168 168" id="movie"><path fill="#2d4356" d="M45 43.606a3 3 0 1 0-3-3A3.00344 3.00344 0 0 0 45 43.606zm0-4.5a1.5 1.5 0 1 1-1.5 1.5A1.50148 1.50148 0 0 1 45 39.106zM162 38.606a2 2 0 1 0 2 2A2.00229 2.00229 0 0 0 162 38.606zm0 3a1 1 0 1 1 1-1A1.001 1.001 0 0 1 162 41.606zM126 16.606a2 2 0 1 0 2 2A2.00229 2.00229 0 0 0 126 16.606zm0 3a1 1 0 1 1 1-1A1.001 1.001 0 0 1 126 19.606zM158.30471 8.606a2 2 0 1 0 2 2A2.00229 2.00229 0 0 0 158.30471 8.606zm0 3a1 1 0 1 1 1-1A1.001 1.001 0 0 1 158.30471 11.606zM17.30471 26.606a2 2 0 1 0-2 2A2.00229 2.00229 0 0 0 17.30471 26.606zm-3 0a1 1 0 1 1 1 1A1.001 1.001 0 0 1 14.30471 26.606z"></path><polygon fill="#0bceb2" points="10.888 67.617 12.375 65.662 11.436 65.13 10.481 67.32 10.45 67.32 9.48 65.145 8.525 65.693 9.996 67.602 9.996 67.633 7.695 67.336 7.695 68.399 10.011 68.103 10.011 68.134 8.525 70.042 9.416 70.606 10.434 68.399 10.465 68.399 11.404 70.59 12.39 70.027 10.888 68.149 10.888 68.118 13.25 68.399 13.25 67.336 10.888 67.648 10.888 67.617"></polygon><polygon fill="#0bceb2" points="64.734 5.124 63.878 6.223 64.392 6.548 64.978 5.277 64.996 5.277 65.536 6.538 66.104 6.214 65.239 5.133 65.239 5.115 66.599 5.277 66.599 4.664 65.239 4.844 65.239 4.827 66.095 3.7 65.555 3.394 65.005 4.655 64.987 4.655 64.429 3.403 63.878 3.718 64.726 4.818 64.726 4.836 63.401 4.664 63.401 5.277 64.734 5.106 64.734 5.124"></polygon><polygon fill="#0bceb2" points="137.724 59.813 137.724 58.77 135.407 59.076 135.407 59.046 136.866 57.128 135.945 56.606 135.009 58.754 134.977 58.754 134.027 56.621 133.089 57.158 134.533 59.031 134.533 59.061 132.276 58.77 132.276 59.813 134.548 59.522 134.548 59.552 133.089 61.424 133.964 61.977 134.963 59.813 134.992 59.813 135.913 61.962 136.881 61.409 135.407 59.567 135.407 59.537 137.724 59.813"></polygon><polygon fill="#0bceb2" points="95.701 37.394 96.959 35.739 96.165 35.289 95.357 37.142 95.33 37.142 94.51 35.302 93.702 35.766 94.947 37.381 94.947 37.407 93 37.156 93 38.056 94.96 37.805 94.96 37.831 93.702 39.446 94.456 39.923 95.317 38.056 95.343 38.056 96.138 39.909 96.972 39.433 95.701 37.844 95.701 37.818 97.7 38.056 97.7 37.156 95.701 37.42 95.701 37.394"></polygon><circle cx="2" cy="148.606" r="2" fill="#2d4356"></circle><path fill="#2d4356" d="M11,146.606H8a2,2,0,0,0,0,4h3a2,2,0,0,0,0-4Z"></path><path fill="#0bceb2" d="M118.15387 154.606h-8.30774a2.00641 2.00641 0 0 0 0 4h8.30774a2.00641 2.00641 0 0 0 0-4zM58.15387 154.606H49.84613a2.00641 2.00641 0 0 0 0 4h8.30774a2.00641 2.00641 0 0 0 0-4zM104 154.606H64a2 2 0 0 0 0 4H79.94v2H72a2 2 0 0 0 0 4H97a2 2 0 0 0 0-4H88.06v-2H104a2 2 0 0 0 0-4z"></path><path fill="#2d4356" d="M93 98.60593a24 24 0 1 0-24-24A24.02718 24.02718 0 0 0 93 98.60593zm0-44a20 20 0 1 1-20 20A20 20 0 0 1 93 54.60593zM47 92.60593a18 18 0 1 0-18-18A18.02039 18.02039 0 0 0 47 92.60593zm0-32a14 14 0 1 1-14 14A14 14 0 0 1 47 60.60593z"></path><path fill="#0bceb2" d="M47 83.60593a9 9 0 1 0-9-9A9.01019 9.01019 0 0 0 47 83.60593zm0-14a5 5 0 1 1-5 5A5 5 0 0 1 47 69.60593zM93 87.60593a13 13 0 1 0-13-13A13.01474 13.01474 0 0 0 93 87.60593zm0-22a9 9 0 1 1-9 9A9 9 0 0 1 93 65.60593zM61.02924 96.12509A4.00008 4.00008 0 0 0 59 99.60593v24a3.99995 3.99995 0 0 0 6.058 3.42993l20-12a4 4 0 0 0 0-6.85992l-20-12a4.00012 4.00012 0 0 0-4.02875-.05084zM63 99.60593l20 12-20 12z"></path><path fill="#2d4356" d="M160,146.606h-3a2,2,0,0,0,0,4h3a2,2,0,0,0,0-4Z"></path><circle cx="166" cy="148.606" r="2" fill="#2d4356"></circle><path fill="#2d4356" d="M150.72131,146.606H148V77.60593a4,4,0,0,0-6.59595-3.04321L126,87.70309v-.09717a8.01087,8.01087,0,0,0-5.52692-7.60425,27.73863,27.73863,0,0,1-1.05725,3.87476A3.99145,3.99145,0,0,1,122,87.60593v49a4,4,0,0,1-4,4H28a4,4,0,0,1-4-4v-49a3.99068,3.99068,0,0,1,2.99744-3.85779,21.81578,21.81578,0,0,1-1.33624-3.79163A8.01294,8.01294,0,0,0,20,87.60593v49a8.00909,8.00909,0,0,0,8,8h90a8.009,8.009,0,0,0,8-8v-.09717L137.83673,146.606H17.27869a2.017,2.017,0,1,0,0,4H150.72131a2.017,2.017,0,1,0,0-4ZM126,92.96072l18-15.3548v69l-18-15.35486Z"></path></svg>